<svg width="28" height="29" viewBox="0 0 28 29" fill="none" xmlns="http://www.w3.org/2000/svg">
<path d="M14.1501 2.66789C14.193 2.66801 14.2359 2.66813 14.2801 2.66825C14.9645 2.67126 15.6251 2.70764 16.2966 2.84905C16.349 2.85962 16.4014 2.8702 16.4554 2.88109C19.3508 3.47729 19.3508 3.47729 19.9606 4.27092C19.9892 4.49104 19.98 4.61592 19.8786 4.81438C19.7206 4.94472 19.6277 4.95041 19.4266 4.94484C19.205 4.9128 19.022 4.80845 18.8259 4.705C16.262 3.42721 13.2712 3.28438 10.5612 4.17864C8.81275 4.77832 7.29568 5.73319 5.96064 7.0053C5.91806 7.04499 5.87548 7.08467 5.83161 7.12557C3.994 8.88825 2.77409 11.6195 2.72105 14.1587C2.67378 17.367 3.58513 20.5086 5.8487 22.8602C5.90408 22.9165 5.95962 22.9727 6.01533 23.0287C6.04272 23.0563 6.07011 23.084 6.09832 23.1124C8.14977 25.1527 11.1059 26.1731 13.9621 26.1664C14.0339 26.1664 14.0339 26.1664 14.1071 26.1663C17.2056 26.1575 20.0582 24.9518 22.2462 22.7668C23.7874 21.1522 24.6904 19.0766 25.1013 16.9037C25.1102 16.8578 25.1192 16.8118 25.1284 16.7644C25.5346 14.5966 25.2524 12.217 24.2846 10.2297C24.2581 10.1752 24.2581 10.1752 24.2311 10.1196C24.1817 10.0197 24.1308 9.92069 24.0797 9.8217C23.9915 9.58787 23.9856 9.44086 24.0075 9.1928C24.147 9.02874 24.2333 8.98199 24.445 8.9467C24.6578 8.98216 24.7274 9.0416 24.8825 9.1928C24.985 9.35472 25.0655 9.52478 25.1457 9.69866C25.1692 9.74914 25.1927 9.79962 25.217 9.85164C25.947 11.4611 26.274 13.1585 26.2668 14.9179C26.2666 14.994 26.2666 14.994 26.2665 15.0716C26.2641 15.8035 26.2427 16.5145 26.0856 17.2319C26.0763 17.2776 26.0669 17.3233 26.0572 17.3704C25.6291 19.4353 24.731 21.322 23.3513 22.9194C23.3086 22.9691 23.266 23.0189 23.222 23.0702C23.1036 23.2049 22.9825 23.3361 22.8591 23.4662C22.8335 23.4933 22.8078 23.5204 22.7815 23.5484C22.3471 24.0048 21.8878 24.4031 21.3825 24.7787C21.352 24.8019 21.3215 24.8251 21.2901 24.849C19.2733 26.3802 16.7326 27.1967 14.2116 27.1987C14.1678 27.1987 14.1241 27.1987 14.079 27.1988C13.3484 27.1978 12.6412 27.1545 11.9216 27.0209C11.8719 27.0121 11.8222 27.0033 11.771 26.9942C9.4894 26.5808 7.30183 25.5881 5.61329 23.9843C5.50964 23.8875 5.40659 23.7968 5.29713 23.7072C5.09203 23.5351 4.92958 23.3423 4.75752 23.1381C4.71698 23.0921 4.67645 23.046 4.63468 22.9986C3.28279 21.4347 2.41701 19.5022 2.00605 17.4848C1.998 17.4453 1.98994 17.4058 1.98165 17.3651C1.83038 16.5637 1.78368 15.7692 1.7873 14.9555C1.78748 14.8836 1.78748 14.8836 1.78766 14.8103C1.79062 14.0578 1.82001 13.3234 1.96846 12.5834C1.98432 12.5032 1.98432 12.5032 2.0005 12.4213C2.45065 10.2202 3.4013 8.17866 4.95576 6.54323C5.08679 6.40612 5.08679 6.40612 5.20036 6.25954C5.35912 6.06231 5.54942 5.91092 5.74189 5.74748C5.79201 5.70286 5.84214 5.65824 5.89378 5.61226C6.37539 5.1872 6.89427 4.83182 7.4372 4.48967C7.46967 4.46902 7.50213 4.44838 7.53558 4.42711C9.46799 3.21279 11.8841 2.65657 14.1501 2.66789Z" fill="#FDF567"/>
<path d="M15.9142 6.78651C15.9521 6.79561 15.99 6.8047 16.029 6.81407C17.8564 7.26621 17.8564 7.26621 18.2658 7.88026C18.2918 8.07987 18.2776 8.18476 18.1872 8.36561C18.0273 8.49823 17.9192 8.53031 17.7117 8.51942C17.4635 8.45993 17.2478 8.33835 17.0239 8.21984C16.2289 7.80177 15.3329 7.59489 14.4377 7.55214C14.3873 7.54925 14.3369 7.54636 14.2849 7.54338C12.3842 7.48682 10.4486 8.22105 9.05095 9.5038C8.94975 9.59972 8.84997 9.69693 8.75017 9.79432C8.69254 9.84688 8.69254 9.84688 8.63375 9.90049C7.3755 11.0774 6.70705 12.8456 6.62143 14.5413C6.56258 16.4633 7.16057 18.2894 8.42205 19.7474C8.4782 19.8145 8.4782 19.8145 8.53548 19.8829C9.75312 21.2951 11.5717 22.1233 13.4119 22.2926C15.3531 22.4344 17.2292 21.8659 18.716 20.598C20.2575 19.2443 21.2142 17.3496 21.3742 15.3007C21.4529 13.9805 21.1979 12.4972 20.4533 11.3803C20.424 11.2126 20.4239 11.0558 20.4533 10.8881C20.5925 10.7203 20.6769 10.6776 20.8908 10.642C21.1005 10.6769 21.1747 10.7412 21.3283 10.8881C21.4142 11.021 21.4792 11.1607 21.5436 11.3051C21.5716 11.3665 21.5716 11.3665 21.6001 11.4292C21.7988 11.8767 21.9624 12.3306 22.0939 12.8021C22.1113 12.8633 22.1113 12.8633 22.129 12.9257C22.7015 15.044 22.257 17.3716 21.1803 19.246C20.8394 19.8175 20.4219 20.3091 19.9611 20.7865C19.918 20.8331 19.8748 20.8797 19.8304 20.9277C18.494 22.3327 16.4694 23.2021 14.54 23.2628C13.7634 23.2769 13.0089 23.2563 12.2502 23.0834C12.207 23.0737 12.1639 23.064 12.1194 23.0541C10.6013 22.7046 9.28187 22.0218 8.14861 20.9506C8.10427 20.9098 8.05993 20.8689 8.01424 20.8269C6.57004 19.4509 5.74857 17.3529 5.68767 15.3724C5.68549 15.3073 5.6833 15.2422 5.68105 15.1751C5.64228 12.8668 6.43076 10.6938 8.03151 9.01796C9.98686 7.02126 13.19 6.11389 15.9142 6.78651Z" fill="#FDF567"/>
<path d="M22.8592 3.34116C22.9885 3.44326 23.0593 3.52275 23.1326 3.66928C23.1488 3.81652 23.1624 3.963 23.1738 4.11063C23.1774 4.15417 23.181 4.19771 23.1846 4.24258C23.196 4.38187 23.207 4.52118 23.2181 4.66049C23.2257 4.75484 23.2333 4.84919 23.241 4.94354C23.2598 5.17502 23.2783 5.40652 23.2967 5.63803C23.3549 5.64214 23.4131 5.64625 23.4731 5.65049C23.6897 5.66598 23.9062 5.68241 24.1228 5.69911C24.2164 5.70621 24.31 5.71304 24.4037 5.71962C24.5385 5.72914 24.6733 5.73957 24.8081 5.75018C24.8497 5.75293 24.8914 5.75567 24.9343 5.75849C25.1756 5.77854 25.3453 5.81762 25.5389 5.96616C25.628 6.14446 25.6191 6.26027 25.5935 6.45834C25.3102 6.87643 24.8884 7.22612 24.5312 7.58264C24.4658 7.64809 24.4004 7.71354 24.335 7.779C24.1988 7.91528 24.0625 8.05145 23.9261 8.18756C23.7512 8.36219 23.5765 8.53707 23.4019 8.71203C23.2673 8.84681 23.1326 8.98147 22.9978 9.11609C22.9333 9.18057 22.8688 9.24509 22.8044 9.30965C22.7147 9.39944 22.6249 9.48905 22.535 9.57862C22.484 9.62964 22.4329 9.68066 22.3803 9.73322C22.1893 9.9134 22.082 9.91243 21.8235 9.91391C21.752 9.91492 21.6805 9.91594 21.6069 9.91698C21.3979 9.91338 21.208 9.88136 21.0039 9.83669C20.5545 9.74999 20.0998 9.67126 19.6754 9.88142C19.2655 10.1677 18.9279 10.5312 18.5899 10.8967C18.4423 11.0545 18.2901 11.2077 18.1384 11.3615C17.8527 11.6524 17.5712 11.947 17.2912 12.2434C16.9721 12.5806 16.6485 12.9135 16.3245 13.246C15.9296 13.6513 15.5352 14.0571 15.1446 14.4666C15.1171 14.4954 15.0896 14.5242 15.0613 14.5538C14.9325 14.6887 14.804 14.8238 14.6756 14.9592C14.6312 15.0059 14.5867 15.0526 14.5408 15.1007C14.4828 15.162 14.4828 15.1619 14.4235 15.2244C14.2759 15.3685 14.2209 15.3722 14.0066 15.3895C13.845 15.3863 13.787 15.376 13.6443 15.2904C13.5517 15.136 13.5212 15.0127 13.5311 14.8322C13.6421 14.4197 14.1674 14.0583 14.4672 13.7755C14.5726 13.6753 14.678 13.5751 14.7834 13.4749C14.8246 13.4357 14.8246 13.4357 14.8666 13.3957C15.252 13.0291 15.633 12.6579 16.0144 12.2871C16.3242 11.986 16.6354 11.6865 16.95 11.3904C17.2259 11.1307 17.4988 10.8682 17.7686 10.6022C17.911 10.462 18.0544 10.3235 18.2015 10.1882C18.9085 9.55974 18.9085 9.55974 19.1853 8.69272C19.1735 8.37667 19.1267 8.0725 19.0617 7.76334C19.0203 7.55179 19.0088 7.34692 19.0003 7.13168C18.9968 7.07395 18.9934 7.01621 18.9898 6.95673C19.1113 6.45515 19.7327 6.02211 20.0934 5.66217C20.1588 5.59672 20.2242 5.53127 20.2896 5.46581C20.4258 5.32954 20.5621 5.19336 20.6984 5.05726C20.8734 4.88262 21.0481 4.70774 21.2227 4.53279C21.3573 4.398 21.492 4.26334 21.6268 4.12872C21.6913 4.06424 21.7558 3.99972 21.8202 3.93516C21.9099 3.84537 21.9997 3.75576 22.0896 3.6662C22.1406 3.61518 22.1917 3.56416 22.2443 3.51159C22.4464 3.32088 22.5832 3.31737 22.8592 3.34116ZM22.2029 4.87241C21.906 5.14118 21.6126 5.41331 21.3231 5.68994C21.1884 5.81837 21.0529 5.94547 20.9146 6.06999C20.2339 6.64088 20.2339 6.64088 19.9012 7.42427C19.9016 7.66918 19.9367 7.9023 19.9895 8.14105C20.0244 8.30507 20.0356 8.46844 20.0462 8.63559C20.0539 8.71195 20.0617 8.7883 20.0701 8.86459C20.2797 8.88313 20.4894 8.90124 20.699 8.91928C20.7579 8.9245 20.8169 8.92971 20.8776 8.93509C20.9354 8.94002 20.9932 8.94496 21.0528 8.95004C21.1318 8.95692 21.1318 8.95692 21.2125 8.96393C21.2686 8.96724 21.3248 8.97055 21.3826 8.97397C21.4846 8.98988 21.4846 8.98988 21.5886 9.00612C21.8726 9.00309 22.0202 8.82357 22.2115 8.63211C22.2583 8.58307 22.3051 8.53402 22.3533 8.48349C22.4025 8.43372 22.4516 8.38395 22.5022 8.33268C22.6322 8.20073 22.7611 8.06791 22.8895 7.93458C23.0211 7.79853 23.1539 7.66372 23.2866 7.52881C23.5464 7.26426 23.8048 6.9985 24.0623 6.73178C23.9271 6.59656 23.8756 6.6051 23.6887 6.59357C23.636 6.58973 23.5833 6.58588 23.529 6.58192C23.4181 6.57477 23.3071 6.56779 23.1962 6.56099C22.6634 6.52159 22.6634 6.52159 22.4764 6.34897C22.4277 6.22827 22.4277 6.22827 22.408 6.08578C22.4004 6.03305 22.3928 5.98032 22.3849 5.92599C22.3586 5.66401 22.3426 5.40182 22.3311 5.13879C22.3279 4.97482 22.3279 4.97482 22.2029 4.87241Z" fill="#FDF567"/>
<path d="M15.5863 10.8333C15.721 11.0353 15.7325 11.2005 15.6957 11.4349C15.6137 11.5716 15.6137 11.5716 15.477 11.6536C15.2006 11.6813 14.9929 11.6452 14.7244 11.5727C13.8706 11.3745 12.9798 11.5421 12.2295 11.9805C11.4095 12.5044 10.8839 13.2433 10.6322 14.18C10.4895 15.1555 10.6455 16.0609 11.1567 16.9036C11.3075 17.1014 11.4704 17.2775 11.6488 17.4505C11.6797 17.4818 11.7105 17.5131 11.7422 17.5454C12.336 18.106 13.2022 18.3294 14.0004 18.3529C14.9776 18.3241 15.8246 17.9866 16.516 17.2865C16.5468 17.2569 16.5776 17.2272 16.6094 17.1967C17.2854 16.4904 17.4179 15.5363 17.4075 14.6042C17.3987 14.3541 17.3483 14.1366 17.2817 13.8958C17.2516 13.6819 17.2491 13.5125 17.3637 13.3216C17.5569 13.2057 17.7181 13.1961 17.9379 13.2396C18.1704 13.3904 18.2487 13.638 18.3207 13.8958C18.5624 15.1786 18.3289 16.394 17.6269 17.4845C17.5357 17.6075 17.4397 17.7203 17.3363 17.8333C17.2926 17.8821 17.2488 17.9309 17.2037 17.9812C16.6845 18.5312 16.0806 18.8938 15.3676 19.1458C15.3211 19.1633 15.2747 19.1808 15.2268 19.1988C14.151 19.5381 12.8865 19.3403 11.9013 18.829C10.8491 18.2549 10.1688 17.4248 9.78563 16.2933C9.4345 15.0542 9.59818 13.7876 10.1928 12.6551C10.3444 12.3931 10.5237 12.1578 10.7192 11.9271C10.7464 11.8945 10.7737 11.8619 10.8018 11.8284C11.8425 10.6907 14.1811 9.99859 15.5863 10.8333Z" fill="#FDF567"/>
</svg>
